<svg width="32" height="32" viewBox="0 0 32 32" fill="none" xmlns="http://www.w3.org/2000/svg">
<g id="AR">
<path id="Vector" d="M14.667 25.9666L8.00033 22.1333C7.5781 21.8888 7.25033 21.5666 7.01699 21.1666C6.78366 20.7666 6.66699 20.3222 6.66699 19.8333V12.1666C6.66699 11.6777 6.78366 11.2333 7.01699 10.8333C7.25033 10.4333 7.5781 10.1111 8.00033 9.86663L14.667 6.03329C15.0892 5.78885 15.5337 5.66663 16.0003 5.66663C16.467 5.66663 16.9114 5.78885 17.3337 6.03329L24.0003 9.86663C24.4225 10.1111 24.7503 10.4333 24.9837 10.8333C25.217 11.2333 25.3337 11.6777 25.3337 12.1666V19.8333C25.3337 20.3222 25.217 20.7666 24.9837 21.1666C24.7503 21.5666 24.4225 21.8888 24.0003 22.1333L17.3337 25.9666C16.9114 26.2111 16.467 26.3333 16.0003 26.3333C15.5337 26.3333 15.0892 26.2111 14.667 25.9666ZM14.667 22.9V16.7666L9.33366 13.6666V19.8333L14.667 22.9ZM17.3337 22.9L22.667 19.8333V13.6666L17.3337 16.7666V22.9ZM2.66699 9.33329V5.33329C2.66699 4.59996 2.9281 3.97218 3.45033 3.44996C3.97255 2.92774 4.60033 2.66663 5.33366 2.66663H9.33366V5.33329H5.33366V9.33329H2.66699ZM9.33366 29.3333H5.33366C4.60033 29.3333 3.97255 29.0722 3.45033 28.55C2.9281 28.0277 2.66699 27.4 2.66699 26.6666V22.6666H5.33366V26.6666H9.33366V29.3333ZM22.667 29.3333V26.6666H26.667V22.6666H29.3337V26.6666C29.3337 27.4 29.0725 28.0277 28.5503 28.55C28.0281 29.0722 27.4003 29.3333 26.667 29.3333H22.667ZM26.667 9.33329V5.33329H22.667V2.66663H26.667C27.4003 2.66663 28.0281 2.92774 28.5503 3.44996C29.0725 3.97218 29.3337 4.59996 29.3337 5.33329V9.33329H26.667ZM16.0003 14.4666L21.267 11.3666L16.0003 8.33329L10.7337 11.3666L16.0003 14.4666Z" fill="black"/>
</g>
</svg>
