<svg width="21" height="18" viewBox="0 0 21 18" fill="none" xmlns="http://www.w3.org/2000/svg">
<path id="Vector" d="M10.5 18L9.05 16.7248C7.36667 15.2371 5.975 13.9537 4.875 12.8747C3.775 11.7956 2.9 10.827 2.25 9.96867C1.6 9.11035 1.14583 8.32153 0.8875 7.60218C0.629167 6.88283 0.5 6.14714 0.5 5.3951C0.5 3.85831 1.025 2.57493 2.075 1.54496C3.125 0.514986 4.43333 0 6 0C6.86667 0 7.69167 0.179836 8.475 0.53951C9.25833 0.899183 9.93333 1.40599 10.5 2.05995C11.0667 1.40599 11.7417 0.899183 12.525 0.53951C13.3083 0.179836 14.1333 0 15 0C16.5667 0 17.875 0.514986 18.925 1.54496C19.975 2.57493 20.5 3.85831 20.5 5.3951C20.5 6.14714 20.3708 6.88283 20.1125 7.60218C19.8542 8.32153 19.4 9.11035 18.75 9.96867C18.1 10.827 17.225 11.7956 16.125 12.8747C15.025 13.9537 13.6333 15.2371 11.95 16.7248L10.5 18ZM10.5 15.3515C12.1 13.9455 13.4167 12.7398 14.45 11.7343C15.4833 10.7289 16.3 9.85422 16.9 9.11035C17.5 8.36649 17.9167 7.70436 18.15 7.12398C18.3833 6.5436 18.5 5.9673 18.5 5.3951C18.5 4.41417 18.1667 3.59673 17.5 2.94278C16.8333 2.28883 16 1.96185 15 1.96185C14.2167 1.96185 13.4917 2.17847 12.825 2.61172C12.1583 3.04496 11.7 3.59673 11.45 4.26703H9.55C9.3 3.59673 8.84167 3.04496 8.175 2.61172C7.50833 2.17847 6.78333 1.96185 6 1.96185C5 1.96185 4.16667 2.28883 3.5 2.94278C2.83333 3.59673 2.5 4.41417 2.5 5.3951C2.5 5.9673 2.61667 6.5436 2.85 7.12398C3.08333 7.70436 3.5 8.36649 4.1 9.11035C4.7 9.85422 5.51667 10.7289 6.55 11.7343C7.58333 12.7398 8.9 13.9455 10.5 15.3515Z" fill="#38CC96"/>
</svg>
