<svg width="24" height="24" viewBox="0 0 24 24" fill="none" xmlns="http://www.w3.org/2000/svg">
<g id="Ios share">
<path id="Vector" d="M12 16C11.7167 16 11.4793 15.904 11.288 15.712C11.096 15.5207 11 15.2834 11 15V4.82505L10.1 5.72505C9.91667 5.90838 9.68767 6.00005 9.413 6.00005C9.13767 6.00005 8.9 5.90005 8.7 5.70005C8.51667 5.50005 8.425 5.26238 8.425 4.98705C8.425 4.71238 8.51667 4.48338 8.7 4.30005L11.3 1.70005C11.3833 1.61672 11.4877 1.55005 11.613 1.50005C11.7377 1.45005 11.8667 1.42505 12 1.42505C12.1333 1.42505 12.2627 1.45005 12.388 1.50005C12.5127 1.55005 12.6167 1.61672 12.7 1.70005L15.3 4.30005C15.5 4.50005 15.6 4.74172 15.6 5.02505C15.6 5.30838 15.5 5.54172 15.3 5.72505C15.1 5.90838 14.8627 6.00005 14.588 6.00005C14.3127 6.00005 14.0833 5.90838 13.9 5.72505L13 4.82505V15C13 15.2834 12.9043 15.5207 12.713 15.712C12.521 15.904 12.2833 16 12 16ZM6 23C5.45 23 4.97933 22.8044 4.588 22.413C4.196 22.021 4 21.55 4 21V10C4 9.45005 4.196 8.97905 4.588 8.58705C4.97933 8.19571 5.45 8.00005 6 8.00005H8C8.28333 8.00005 8.521 8.09572 8.713 8.28705C8.90433 8.47905 9 8.71672 9 9.00005C9 9.28338 8.90433 9.52071 8.713 9.71205C8.521 9.90405 8.28333 10 8 10H6V21H18V10H16C15.7167 10 15.4793 9.90405 15.288 9.71205C15.096 9.52071 15 9.28338 15 9.00005C15 8.71672 15.096 8.47905 15.288 8.28705C15.4793 8.09572 15.7167 8.00005 16 8.00005H18C18.55 8.00005 19.021 8.19571 19.413 8.58705C19.8043 8.97905 20 9.45005 20 10V21C20 21.55 19.8043 22.021 19.413 22.413C19.021 22.8044 18.55 23 18 23H6Z" fill="#38CC96"/>
</g>
</svg>
